<svg xmlns="http://www.w3.org/2000/svg" width="1334" height="2156" viewBox="0 0 1334 2156" role="img" aria-label="Report · Combined report default">
<defs>
<linearGradient id="page" x1="0" x2="1" y1="0" y2="1"><stop stop-color="#f8fcff"/><stop offset="1" stop-color="#eef7f5"/></linearGradient>
<filter id="softShadow" x="-15%" y="-30%" width="130%" height="170%"><feDropShadow dx="0" dy="12" stdDeviation="14" flood-color="#123044" flood-opacity=".12"/></filter>
</defs>
<rect width="100%" height="100%" rx="18" fill="url(#page)"/>
<text x="54" y="42" font-family="Inter, Segoe UI, Arial, sans-serif" font-size="24" font-weight="800" fill="#102334">Report · Combined report default</text>
<text x="54" y="66" font-family="Inter, Segoe UI, Arial, sans-serif" font-size="12" font-weight="600" fill="#5c7284">Default report config; run-demo.R submits reports after selected Plot jobs.</text>
<path d="M 384.0 120.0 C 437.1 120.0, 437.1 120.0, 502.0 120.0" fill="none" stroke="#2f86b7" stroke-width="2.4" stroke-opacity=".42" stroke-linecap="round"/>
<path d="M 384.0 186.0 C 437.1 186.0, 437.1 120.0, 502.0 120.0" fill="none" stroke="#2f86b7" stroke-width="2.4" stroke-opacity=".42" stroke-linecap="round"/>
<path d="M 384.0 252.0 C 437.1 252.0, 437.1 120.0, 502.0 120.0" fill="none" stroke="#2f86b7" stroke-width="2.4" stroke-opacity=".42" stroke-linecap="round"/>
<path d="M 384.0 318.0 C 437.1 318.0, 437.1 120.0, 502.0 120.0" fill="none" stroke="#2f86b7" stroke-width="2.4" stroke-opacity=".42" stroke-linecap="round"/>
<path d="M 384.0 384.0 C 437.1 384.0, 437.1 120.0, 502.0 120.0" fill="none" stroke="#2f86b7" stroke-width="2.4" stroke-opacity=".42" stroke-linecap="round"/>
<path d="M 384.0 450.0 C 437.1 450.0, 437.1 120.0, 502.0 120.0" fill="none" stroke="#2f86b7" stroke-width="2.4" stroke-opacity=".42" stroke-linecap="round"/>
<path d="M 384.0 516.0 C 437.1 516.0, 437.1 120.0, 502.0 120.0" fill="none" stroke="#2f86b7" stroke-width="2.4" stroke-opacity=".42" stroke-linecap="round"/>
<path d="M 384.0 582.0 C 437.1 582.0, 437.1 120.0, 502.0 120.0" fill="none" stroke="#2f86b7" stroke-width="2.4" stroke-opacity=".42" stroke-linecap="round"/>
<path d="M 384.0 648.0 C 437.1 648.0, 437.1 120.0, 502.0 120.0" fill="none" stroke="#2f86b7" stroke-width="2.4" stroke-opacity=".42" stroke-linecap="round"/>
<path d="M 384.0 648.0 C 437.1 648.0, 437.1 252.0, 502.0 252.0" fill="none" stroke="#2f86b7" stroke-width="2.4" stroke-opacity=".42" stroke-linecap="round"/>
<path d="M 384.0 714.0 C 437.1 714.0, 437.1 120.0, 502.0 120.0" fill="none" stroke="#2f86b7" stroke-width="2.4" stroke-opacity=".42" stroke-linecap="round"/>
<path d="M 384.0 714.0 C 437.1 714.0, 437.1 252.0, 502.0 252.0" fill="none" stroke="#2f86b7" stroke-width="2.4" stroke-opacity=".42" stroke-linecap="round"/>
<path d="M 384.0 780.0 C 437.1 780.0, 437.1 186.0, 502.0 186.0" fill="none" stroke="#2f86b7" stroke-width="2.4" stroke-opacity=".42" stroke-linecap="round"/>
<path d="M 384.0 846.0 C 437.1 846.0, 437.1 186.0, 502.0 186.0" fill="none" stroke="#2f86b7" stroke-width="2.4" stroke-opacity=".42" stroke-linecap="round"/>
<path d="M 384.0 912.0 C 437.1 912.0, 437.1 186.0, 502.0 186.0" fill="none" stroke="#2f86b7" stroke-width="2.4" stroke-opacity=".42" stroke-linecap="round"/>
<path d="M 384.0 978.0 C 437.1 978.0, 437.1 186.0, 502.0 186.0" fill="none" stroke="#2f86b7" stroke-width="2.4" stroke-opacity=".42" stroke-linecap="round"/>
<path d="M 384.0 1044.0 C 437.1 1044.0, 437.1 186.0, 502.0 186.0" fill="none" stroke="#2f86b7" stroke-width="2.4" stroke-opacity=".42" stroke-linecap="round"/>
<path d="M 384.0 1110.0 C 437.1 1110.0, 437.1 186.0, 502.0 186.0" fill="none" stroke="#2f86b7" stroke-width="2.4" stroke-opacity=".42" stroke-linecap="round"/>
<path d="M 384.0 1176.0 C 437.1 1176.0, 437.1 186.0, 502.0 186.0" fill="none" stroke="#2f86b7" stroke-width="2.4" stroke-opacity=".42" stroke-linecap="round"/>
<path d="M 384.0 1242.0 C 437.1 1242.0, 437.1 186.0, 502.0 186.0" fill="none" stroke="#2f86b7" stroke-width="2.4" stroke-opacity=".42" stroke-linecap="round"/>
<path d="M 384.0 1308.0 C 437.1 1308.0, 437.1 186.0, 502.0 186.0" fill="none" stroke="#2f86b7" stroke-width="2.4" stroke-opacity=".42" stroke-linecap="round"/>
<path d="M 384.0 1308.0 C 437.1 1308.0, 437.1 252.0, 502.0 252.0" fill="none" stroke="#2f86b7" stroke-width="2.4" stroke-opacity=".42" stroke-linecap="round"/>
<path d="M 384.0 1374.0 C 437.1 1374.0, 437.1 186.0, 502.0 186.0" fill="none" stroke="#2f86b7" stroke-width="2.4" stroke-opacity=".42" stroke-linecap="round"/>
<path d="M 384.0 1374.0 C 437.1 1374.0, 437.1 318.0, 502.0 318.0" fill="none" stroke="#2f86b7" stroke-width="2.4" stroke-opacity=".42" stroke-linecap="round"/>
<path d="M 384.0 1440.0 C 437.1 1440.0, 437.1 186.0, 502.0 186.0" fill="none" stroke="#2f86b7" stroke-width="2.4" stroke-opacity=".42" stroke-linecap="round"/>
<path d="M 384.0 1440.0 C 437.1 1440.0, 437.1 252.0, 502.0 252.0" fill="none" stroke="#2f86b7" stroke-width="2.4" stroke-opacity=".42" stroke-linecap="round"/>
<path d="M 384.0 1440.0 C 437.1 1440.0, 437.1 318.0, 502.0 318.0" fill="none" stroke="#2f86b7" stroke-width="2.4" stroke-opacity=".42" stroke-linecap="round"/>
<path d="M 384.0 1506.0 C 437.1 1506.0, 437.1 186.0, 502.0 186.0" fill="none" stroke="#2f86b7" stroke-width="2.4" stroke-opacity=".42" stroke-linecap="round"/>
<path d="M 384.0 1506.0 C 437.1 1506.0, 437.1 318.0, 502.0 318.0" fill="none" stroke="#2f86b7" stroke-width="2.4" stroke-opacity=".42" stroke-linecap="round"/>
<path d="M 384.0 1572.0 C 437.1 1572.0, 437.1 186.0, 502.0 186.0" fill="none" stroke="#2f86b7" stroke-width="2.4" stroke-opacity=".42" stroke-linecap="round"/>
<path d="M 384.0 1638.0 C 437.1 1638.0, 437.1 186.0, 502.0 186.0" fill="none" stroke="#2f86b7" stroke-width="2.4" stroke-opacity=".42" stroke-linecap="round"/>
<path d="M 384.0 1704.0 C 437.1 1704.0, 437.1 186.0, 502.0 186.0" fill="none" stroke="#2f86b7" stroke-width="2.4" stroke-opacity=".42" stroke-linecap="round"/>
<path d="M 384.0 1770.0 C 437.1 1770.0, 437.1 384.0, 502.0 384.0" fill="none" stroke="#2f86b7" stroke-width="2.4" stroke-opacity=".42" stroke-linecap="round"/>
<path d="M 384.0 1836.0 C 437.1 1836.0, 437.1 252.0, 502.0 252.0" fill="none" stroke="#2f86b7" stroke-width="2.4" stroke-opacity=".42" stroke-linecap="round"/>
<path d="M 384.0 1836.0 C 437.1 1836.0, 437.1 384.0, 502.0 384.0" fill="none" stroke="#2f86b7" stroke-width="2.4" stroke-opacity=".42" stroke-linecap="round"/>
<path d="M 384.0 1836.0 C 437.1 1836.0, 437.1 450.0, 502.0 450.0" fill="none" stroke="#2f86b7" stroke-width="2.4" stroke-opacity=".42" stroke-linecap="round"/>
<path d="M 384.0 1902.0 C 437.1 1902.0, 437.1 384.0, 502.0 384.0" fill="none" stroke="#2f86b7" stroke-width="2.4" stroke-opacity=".42" stroke-linecap="round"/>
<path d="M 384.0 1902.0 C 437.1 1902.0, 437.1 450.0, 502.0 450.0" fill="none" stroke="#2f86b7" stroke-width="2.4" stroke-opacity=".42" stroke-linecap="round"/>
<path d="M 384.0 1968.0 C 437.1 1968.0, 437.1 384.0, 502.0 384.0" fill="none" stroke="#2f86b7" stroke-width="2.4" stroke-opacity=".42" stroke-linecap="round"/>
<path d="M 384.0 1968.0 C 437.1 1968.0, 437.1 450.0, 502.0 450.0" fill="none" stroke="#2f86b7" stroke-width="2.4" stroke-opacity=".42" stroke-linecap="round"/>
<path d="M 384.0 2034.0 C 437.1 2034.0, 437.1 384.0, 502.0 384.0" fill="none" stroke="#2f86b7" stroke-width="2.4" stroke-opacity=".42" stroke-linecap="round"/>
<path d="M 384.0 2034.0 C 437.1 2034.0, 437.1 450.0, 502.0 450.0" fill="none" stroke="#2f86b7" stroke-width="2.4" stroke-opacity=".42" stroke-linecap="round"/>
<path d="M 384.0 2034.0 C 437.1 2034.0, 437.1 516.0, 502.0 516.0" fill="none" stroke="#2f86b7" stroke-width="2.4" stroke-opacity=".42" stroke-linecap="round"/>
<path d="M 832.0 384.0 C 885.1 384.0, 885.1 120.0, 950.0 120.0" fill="none" stroke="#4f9d8a" stroke-width="2.4" stroke-opacity=".42" stroke-linecap="round"/>
<path d="M 832.0 450.0 C 885.1 450.0, 885.1 186.0, 950.0 186.0" fill="none" stroke="#4f9d8a" stroke-width="2.4" stroke-opacity=".42" stroke-linecap="round"/>
<path d="M 832.0 516.0 C 885.1 516.0, 885.1 252.0, 950.0 252.0" fill="none" stroke="#4f9d8a" stroke-width="2.4" stroke-opacity=".42" stroke-linecap="round"/>
<g><rect x="54" y="78" width="93" height="28" rx="14" fill="#2f86b7" fill-opacity=".10" stroke="#2f86b7" stroke-opacity=".35"/><text x="70" y="97" font-family="Inter, Segoe UI, Arial, sans-serif" font-size="13" font-weight="800" fill="#2f86b7">Model</text></g>
<a href="nodes/model--3-model-03-model-3-model-03/">
<g filter="url(#softShadow)">
<rect x="54" y="96" width="330" height="48" rx="12" fill="#ffffff" stroke="#2f86b7" stroke-opacity=".45" stroke-width="1.4"/>
<rect x="54" y="96" width="4" height="48" rx="2" fill="#2f86b7" fill-opacity=".72"/>
<text x="70" y="116" font-family="Inter, Segoe UI, Arial, sans-serif" font-size="12.5" font-weight="760" fill="#102334">Model 3: model-03</text>
<rect x="296" y="108" width="76" height="24" rx="12" fill="#e7f7ee"/><text x="310" y="124" font-family="Inter, Segoe UI, Arial, sans-serif" font-size="10.5" font-weight="800" fill="#147a4f">completed</text>
<text x="70" y="135" font-family="Inter, Segoe UI, Arial, sans-serif" font-size="9.5" font-weight="700" fill="#6a7f90">Model · 6 outputs</text>
</g>
</a>
<a href="nodes/model--4-model-04-model-4-model-04/">
<g filter="url(#softShadow)">
<rect x="54" y="162" width="330" height="48" rx="12" fill="#ffffff" stroke="#2f86b7" stroke-opacity=".45" stroke-width="1.4"/>
<rect x="54" y="162" width="4" height="48" rx="2" fill="#2f86b7" fill-opacity=".72"/>
<text x="70" y="182" font-family="Inter, Segoe UI, Arial, sans-serif" font-size="12.5" font-weight="760" fill="#102334">Model 4: model-04</text>
<rect x="296" y="174" width="76" height="24" rx="12" fill="#e7f7ee"/><text x="310" y="190" font-family="Inter, Segoe UI, Arial, sans-serif" font-size="10.5" font-weight="800" fill="#147a4f">completed</text>
<text x="70" y="201" font-family="Inter, Segoe UI, Arial, sans-serif" font-size="9.5" font-weight="700" fill="#6a7f90">Model · 6 outputs</text>
</g>
</a>
<a href="nodes/model--5-model-05-model-5-model-05/">
<g filter="url(#softShadow)">
<rect x="54" y="228" width="330" height="48" rx="12" fill="#ffffff" stroke="#2f86b7" stroke-opacity=".45" stroke-width="1.4"/>
<rect x="54" y="228" width="4" height="48" rx="2" fill="#2f86b7" fill-opacity=".72"/>
<text x="70" y="248" font-family="Inter, Segoe UI, Arial, sans-serif" font-size="12.5" font-weight="760" fill="#102334">Model 5: model-05</text>
<rect x="296" y="240" width="76" height="24" rx="12" fill="#e7f7ee"/><text x="310" y="256" font-family="Inter, Segoe UI, Arial, sans-serif" font-size="10.5" font-weight="800" fill="#147a4f">completed</text>
<text x="70" y="267" font-family="Inter, Segoe UI, Arial, sans-serif" font-size="9.5" font-weight="700" fill="#6a7f90">Model · 6 outputs</text>
</g>
</a>
<a href="nodes/model--6-model-06-model-6-model-06/">
<g filter="url(#softShadow)">
<rect x="54" y="294" width="330" height="48" rx="12" fill="#ffffff" stroke="#2f86b7" stroke-opacity=".45" stroke-width="1.4"/>
<rect x="54" y="294" width="4" height="48" rx="2" fill="#2f86b7" fill-opacity=".72"/>
<text x="70" y="314" font-family="Inter, Segoe UI, Arial, sans-serif" font-size="12.5" font-weight="760" fill="#102334">Model 6: model-06</text>
<rect x="296" y="306" width="76" height="24" rx="12" fill="#e7f7ee"/><text x="310" y="322" font-family="Inter, Segoe UI, Arial, sans-serif" font-size="10.5" font-weight="800" fill="#147a4f">completed</text>
<text x="70" y="333" font-family="Inter, Segoe UI, Arial, sans-serif" font-size="9.5" font-weight="700" fill="#6a7f90">Model · 6 outputs</text>
</g>
</a>
<a href="nodes/model--7-model-07-model-7-model-07/">
<g filter="url(#softShadow)">
<rect x="54" y="360" width="330" height="48" rx="12" fill="#ffffff" stroke="#2f86b7" stroke-opacity=".45" stroke-width="1.4"/>
<rect x="54" y="360" width="4" height="48" rx="2" fill="#2f86b7" fill-opacity=".72"/>
<text x="70" y="380" font-family="Inter, Segoe UI, Arial, sans-serif" font-size="12.5" font-weight="760" fill="#102334">Model 7: model-07</text>
<rect x="296" y="372" width="76" height="24" rx="12" fill="#e7f7ee"/><text x="310" y="388" font-family="Inter, Segoe UI, Arial, sans-serif" font-size="10.5" font-weight="800" fill="#147a4f">completed</text>
<text x="70" y="399" font-family="Inter, Segoe UI, Arial, sans-serif" font-size="9.5" font-weight="700" fill="#6a7f90">Model · 6 outputs</text>
</g>
</a>
<a href="nodes/model--8-model-08-model-8-model-08/">
<g filter="url(#softShadow)">
<rect x="54" y="426" width="330" height="48" rx="12" fill="#ffffff" stroke="#2f86b7" stroke-opacity=".45" stroke-width="1.4"/>
<rect x="54" y="426" width="4" height="48" rx="2" fill="#2f86b7" fill-opacity=".72"/>
<text x="70" y="446" font-family="Inter, Segoe UI, Arial, sans-serif" font-size="12.5" font-weight="760" fill="#102334">Model 8: model-08</text>
<rect x="296" y="438" width="76" height="24" rx="12" fill="#e7f7ee"/><text x="310" y="454" font-family="Inter, Segoe UI, Arial, sans-serif" font-size="10.5" font-weight="800" fill="#147a4f">completed</text>
<text x="70" y="465" font-family="Inter, Segoe UI, Arial, sans-serif" font-size="9.5" font-weight="700" fill="#6a7f90">Model · 6 outputs</text>
</g>
</a>
<a href="nodes/model--9-model-09-model-9-model-09/">
<g filter="url(#softShadow)">
<rect x="54" y="492" width="330" height="48" rx="12" fill="#ffffff" stroke="#2f86b7" stroke-opacity=".45" stroke-width="1.4"/>
<rect x="54" y="492" width="4" height="48" rx="2" fill="#2f86b7" fill-opacity=".72"/>
<text x="70" y="512" font-family="Inter, Segoe UI, Arial, sans-serif" font-size="12.5" font-weight="760" fill="#102334">Model 9: model-09</text>
<rect x="296" y="504" width="76" height="24" rx="12" fill="#e7f7ee"/><text x="310" y="520" font-family="Inter, Segoe UI, Arial, sans-serif" font-size="10.5" font-weight="800" fill="#147a4f">completed</text>
<text x="70" y="531" font-family="Inter, Segoe UI, Arial, sans-serif" font-size="9.5" font-weight="700" fill="#6a7f90">Model · 6 outputs</text>
</g>
</a>
<a href="nodes/model--10-model-10-model-10-model-10/">
<g filter="url(#softShadow)">
<rect x="54" y="558" width="330" height="48" rx="12" fill="#ffffff" stroke="#2f86b7" stroke-opacity=".45" stroke-width="1.4"/>
<rect x="54" y="558" width="4" height="48" rx="2" fill="#2f86b7" fill-opacity=".72"/>
<text x="70" y="578" font-family="Inter, Segoe UI, Arial, sans-serif" font-size="12.5" font-weight="760" fill="#102334">Model 10: model-10</text>
<rect x="296" y="570" width="76" height="24" rx="12" fill="#e7f7ee"/><text x="310" y="586" font-family="Inter, Segoe UI, Arial, sans-serif" font-size="10.5" font-weight="800" fill="#147a4f">completed</text>
<text x="70" y="597" font-family="Inter, Segoe UI, Arial, sans-serif" font-size="9.5" font-weight="700" fill="#6a7f90">Model · 6 outputs</text>
</g>
</a>
<a href="nodes/model--1-model-01-model-1-model-01/">
<g filter="url(#softShadow)">
<rect x="54" y="624" width="330" height="48" rx="12" fill="#ffffff" stroke="#2f86b7" stroke-opacity=".45" stroke-width="1.4"/>
<rect x="54" y="624" width="4" height="48" rx="2" fill="#2f86b7" fill-opacity=".72"/>
<text x="70" y="644" font-family="Inter, Segoe UI, Arial, sans-serif" font-size="12.5" font-weight="760" fill="#102334">Model 1: model-01</text>
<rect x="296" y="636" width="76" height="24" rx="12" fill="#e7f7ee"/><text x="310" y="652" font-family="Inter, Segoe UI, Arial, sans-serif" font-size="10.5" font-weight="800" fill="#147a4f">completed</text>
<text x="70" y="663" font-family="Inter, Segoe UI, Arial, sans-serif" font-size="9.5" font-weight="700" fill="#6a7f90">Model · 6 outputs</text>
</g>
</a>
<a href="nodes/model--2-model-02-model-2-model-02/">
<g filter="url(#softShadow)">
<rect x="54" y="690" width="330" height="48" rx="12" fill="#ffffff" stroke="#2f86b7" stroke-opacity=".45" stroke-width="1.4"/>
<rect x="54" y="690" width="4" height="48" rx="2" fill="#2f86b7" fill-opacity=".72"/>
<text x="70" y="710" font-family="Inter, Segoe UI, Arial, sans-serif" font-size="12.5" font-weight="760" fill="#102334">Model 2: model-02</text>
<rect x="296" y="702" width="76" height="24" rx="12" fill="#e7f7ee"/><text x="310" y="718" font-family="Inter, Segoe UI, Arial, sans-serif" font-size="10.5" font-weight="800" fill="#147a4f">completed</text>
<text x="70" y="729" font-family="Inter, Segoe UI, Arial, sans-serif" font-size="9.5" font-weight="700" fill="#6a7f90">Model · 6 outputs</text>
</g>
</a>
<a href="nodes/model--11-model-11-model-11-model-11/">
<g filter="url(#softShadow)">
<rect x="54" y="756" width="330" height="48" rx="12" fill="#ffffff" stroke="#2f86b7" stroke-opacity=".45" stroke-width="1.4"/>
<rect x="54" y="756" width="4" height="48" rx="2" fill="#2f86b7" fill-opacity=".72"/>
<text x="70" y="776" font-family="Inter, Segoe UI, Arial, sans-serif" font-size="12.5" font-weight="760" fill="#102334">Model 11: model-11</text>
<rect x="296" y="768" width="76" height="24" rx="12" fill="#e7f7ee"/><text x="310" y="784" font-family="Inter, Segoe UI, Arial, sans-serif" font-size="10.5" font-weight="800" fill="#147a4f">completed</text>
<text x="70" y="795" font-family="Inter, Segoe UI, Arial, sans-serif" font-size="9.5" font-weight="700" fill="#6a7f90">Model · 6 outputs</text>
</g>
</a>
<a href="nodes/model--12-model-12-model-12-model-12/">
<g filter="url(#softShadow)">
<rect x="54" y="822" width="330" height="48" rx="12" fill="#ffffff" stroke="#2f86b7" stroke-opacity=".45" stroke-width="1.4"/>
<rect x="54" y="822" width="4" height="48" rx="2" fill="#2f86b7" fill-opacity=".72"/>
<text x="70" y="842" font-family="Inter, Segoe UI, Arial, sans-serif" font-size="12.5" font-weight="760" fill="#102334">Model 12: model-12</text>
<rect x="296" y="834" width="76" height="24" rx="12" fill="#e7f7ee"/><text x="310" y="850" font-family="Inter, Segoe UI, Arial, sans-serif" font-size="10.5" font-weight="800" fill="#147a4f">completed</text>
<text x="70" y="861" font-family="Inter, Segoe UI, Arial, sans-serif" font-size="9.5" font-weight="700" fill="#6a7f90">Model · 6 outputs</text>
</g>
</a>
<a href="nodes/model--13-model-13-model-13-model-13/">
<g filter="url(#softShadow)">
<rect x="54" y="888" width="330" height="48" rx="12" fill="#ffffff" stroke="#2f86b7" stroke-opacity=".45" stroke-width="1.4"/>
<rect x="54" y="888" width="4" height="48" rx="2" fill="#2f86b7" fill-opacity=".72"/>
<text x="70" y="908" font-family="Inter, Segoe UI, Arial, sans-serif" font-size="12.5" font-weight="760" fill="#102334">Model 13: model-13</text>
<rect x="296" y="900" width="76" height="24" rx="12" fill="#e7f7ee"/><text x="310" y="916" font-family="Inter, Segoe UI, Arial, sans-serif" font-size="10.5" font-weight="800" fill="#147a4f">completed</text>
<text x="70" y="927" font-family="Inter, Segoe UI, Arial, sans-serif" font-size="9.5" font-weight="700" fill="#6a7f90">Model · 6 outputs</text>
</g>
</a>
<a href="nodes/model--14-model-14-model-14-model-14/">
<g filter="url(#softShadow)">
<rect x="54" y="954" width="330" height="48" rx="12" fill="#ffffff" stroke="#2f86b7" stroke-opacity=".45" stroke-width="1.4"/>
<rect x="54" y="954" width="4" height="48" rx="2" fill="#2f86b7" fill-opacity=".72"/>
<text x="70" y="974" font-family="Inter, Segoe UI, Arial, sans-serif" font-size="12.5" font-weight="760" fill="#102334">Model 14: model-14</text>
<rect x="296" y="966" width="76" height="24" rx="12" fill="#e7f7ee"/><text x="310" y="982" font-family="Inter, Segoe UI, Arial, sans-serif" font-size="10.5" font-weight="800" fill="#147a4f">completed</text>
<text x="70" y="993" font-family="Inter, Segoe UI, Arial, sans-serif" font-size="9.5" font-weight="700" fill="#6a7f90">Model · 6 outputs</text>
</g>
</a>
<a href="nodes/model--15-model-15-model-15-model-15/">
<g filter="url(#softShadow)">
<rect x="54" y="1020" width="330" height="48" rx="12" fill="#ffffff" stroke="#2f86b7" stroke-opacity=".45" stroke-width="1.4"/>
<rect x="54" y="1020" width="4" height="48" rx="2" fill="#2f86b7" fill-opacity=".72"/>
<text x="70" y="1040" font-family="Inter, Segoe UI, Arial, sans-serif" font-size="12.5" font-weight="760" fill="#102334">Model 15: model-15</text>
<rect x="296" y="1032" width="76" height="24" rx="12" fill="#e7f7ee"/><text x="310" y="1048" font-family="Inter, Segoe UI, Arial, sans-serif" font-size="10.5" font-weight="800" fill="#147a4f">completed</text>
<text x="70" y="1059" font-family="Inter, Segoe UI, Arial, sans-serif" font-size="9.5" font-weight="700" fill="#6a7f90">Model · 6 outputs</text>
</g>
</a>
<a href="nodes/model--16-model-16-model-16-model-16/">
<g filter="url(#softShadow)">
<rect x="54" y="1086" width="330" height="48" rx="12" fill="#ffffff" stroke="#2f86b7" stroke-opacity=".45" stroke-width="1.4"/>
<rect x="54" y="1086" width="4" height="48" rx="2" fill="#2f86b7" fill-opacity=".72"/>
<text x="70" y="1106" font-family="Inter, Segoe UI, Arial, sans-serif" font-size="12.5" font-weight="760" fill="#102334">Model 16: model-16</text>
<rect x="296" y="1098" width="76" height="24" rx="12" fill="#e7f7ee"/><text x="310" y="1114" font-family="Inter, Segoe UI, Arial, sans-serif" font-size="10.5" font-weight="800" fill="#147a4f">completed</text>
<text x="70" y="1125" font-family="Inter, Segoe UI, Arial, sans-serif" font-size="9.5" font-weight="700" fill="#6a7f90">Model · 6 outputs</text>
</g>
</a>
<a href="nodes/model--17-model-17-model-17-model-17/">
<g filter="url(#softShadow)">
<rect x="54" y="1152" width="330" height="48" rx="12" fill="#ffffff" stroke="#2f86b7" stroke-opacity=".45" stroke-width="1.4"/>
<rect x="54" y="1152" width="4" height="48" rx="2" fill="#2f86b7" fill-opacity=".72"/>
<text x="70" y="1172" font-family="Inter, Segoe UI, Arial, sans-serif" font-size="12.5" font-weight="760" fill="#102334">Model 17: model-17</text>
<rect x="296" y="1164" width="76" height="24" rx="12" fill="#e7f7ee"/><text x="310" y="1180" font-family="Inter, Segoe UI, Arial, sans-serif" font-size="10.5" font-weight="800" fill="#147a4f">completed</text>
<text x="70" y="1191" font-family="Inter, Segoe UI, Arial, sans-serif" font-size="9.5" font-weight="700" fill="#6a7f90">Model · 6 outputs</text>
</g>
</a>
<a href="nodes/model--25-model-25-model-25-model-25/">
<g filter="url(#softShadow)">
<rect x="54" y="1218" width="330" height="48" rx="12" fill="#ffffff" stroke="#2f86b7" stroke-opacity=".45" stroke-width="1.4"/>
<rect x="54" y="1218" width="4" height="48" rx="2" fill="#2f86b7" fill-opacity=".72"/>
<text x="70" y="1238" font-family="Inter, Segoe UI, Arial, sans-serif" font-size="12.5" font-weight="760" fill="#102334">Model 25: model-25</text>
<rect x="296" y="1230" width="76" height="24" rx="12" fill="#e7f7ee"/><text x="310" y="1246" font-family="Inter, Segoe UI, Arial, sans-serif" font-size="10.5" font-weight="800" fill="#147a4f">completed</text>
<text x="70" y="1257" font-family="Inter, Segoe UI, Arial, sans-serif" font-size="9.5" font-weight="700" fill="#6a7f90">Model · 6 outputs</text>
</g>
</a>
<a href="nodes/model--22-model-22-model-22-model-22/">
<g filter="url(#softShadow)">
<rect x="54" y="1284" width="330" height="48" rx="12" fill="#ffffff" stroke="#2f86b7" stroke-opacity=".45" stroke-width="1.4"/>
<rect x="54" y="1284" width="4" height="48" rx="2" fill="#2f86b7" fill-opacity=".72"/>
<text x="70" y="1304" font-family="Inter, Segoe UI, Arial, sans-serif" font-size="12.5" font-weight="760" fill="#102334">Model 22: model-22</text>
<rect x="296" y="1296" width="76" height="24" rx="12" fill="#e7f7ee"/><text x="310" y="1312" font-family="Inter, Segoe UI, Arial, sans-serif" font-size="10.5" font-weight="800" fill="#147a4f">completed</text>
<text x="70" y="1323" font-family="Inter, Segoe UI, Arial, sans-serif" font-size="9.5" font-weight="700" fill="#6a7f90">Model · 6 outputs</text>
</g>
</a>
<a href="nodes/model--19-model-19-model-19-model-19/">
<g filter="url(#softShadow)">
<rect x="54" y="1350" width="330" height="48" rx="12" fill="#ffffff" stroke="#2f86b7" stroke-opacity=".45" stroke-width="1.4"/>
<rect x="54" y="1350" width="4" height="48" rx="2" fill="#2f86b7" fill-opacity=".72"/>
<text x="70" y="1370" font-family="Inter, Segoe UI, Arial, sans-serif" font-size="12.5" font-weight="760" fill="#102334">Model 19: model-19</text>
<rect x="296" y="1362" width="76" height="24" rx="12" fill="#e7f7ee"/><text x="310" y="1378" font-family="Inter, Segoe UI, Arial, sans-serif" font-size="10.5" font-weight="800" fill="#147a4f">completed</text>
<text x="70" y="1389" font-family="Inter, Segoe UI, Arial, sans-serif" font-size="9.5" font-weight="700" fill="#6a7f90">Model · 6 outputs</text>
</g>
</a>
<a href="nodes/model--21-model-21-model-21-model-21/">
<g filter="url(#softShadow)">
<rect x="54" y="1416" width="330" height="48" rx="12" fill="#ffffff" stroke="#2f86b7" stroke-opacity=".45" stroke-width="1.4"/>
<rect x="54" y="1416" width="4" height="48" rx="2" fill="#2f86b7" fill-opacity=".72"/>
<text x="70" y="1436" font-family="Inter, Segoe UI, Arial, sans-serif" font-size="12.5" font-weight="760" fill="#102334">Model 21: model-21</text>
<rect x="296" y="1428" width="76" height="24" rx="12" fill="#e7f7ee"/><text x="310" y="1444" font-family="Inter, Segoe UI, Arial, sans-serif" font-size="10.5" font-weight="800" fill="#147a4f">completed</text>
<text x="70" y="1455" font-family="Inter, Segoe UI, Arial, sans-serif" font-size="9.5" font-weight="700" fill="#6a7f90">Model · 6 outputs</text>
</g>
</a>
<a href="nodes/model--18-model-18-model-18-model-18/">
<g filter="url(#softShadow)">
<rect x="54" y="1482" width="330" height="48" rx="12" fill="#ffffff" stroke="#2f86b7" stroke-opacity=".45" stroke-width="1.4"/>
<rect x="54" y="1482" width="4" height="48" rx="2" fill="#2f86b7" fill-opacity=".72"/>
<text x="70" y="1502" font-family="Inter, Segoe UI, Arial, sans-serif" font-size="12.5" font-weight="760" fill="#102334">Model 18: model-18</text>
<rect x="296" y="1494" width="76" height="24" rx="12" fill="#e7f7ee"/><text x="310" y="1510" font-family="Inter, Segoe UI, Arial, sans-serif" font-size="10.5" font-weight="800" fill="#147a4f">completed</text>
<text x="70" y="1521" font-family="Inter, Segoe UI, Arial, sans-serif" font-size="9.5" font-weight="700" fill="#6a7f90">Model · 6 outputs</text>
</g>
</a>
<a href="nodes/model--23-model-23-model-23-model-23/">
<g filter="url(#softShadow)">
<rect x="54" y="1548" width="330" height="48" rx="12" fill="#ffffff" stroke="#2f86b7" stroke-opacity=".45" stroke-width="1.4"/>
<rect x="54" y="1548" width="4" height="48" rx="2" fill="#2f86b7" fill-opacity=".72"/>
<text x="70" y="1568" font-family="Inter, Segoe UI, Arial, sans-serif" font-size="12.5" font-weight="760" fill="#102334">Model 23: model-23</text>
<rect x="296" y="1560" width="76" height="24" rx="12" fill="#e7f7ee"/><text x="310" y="1576" font-family="Inter, Segoe UI, Arial, sans-serif" font-size="10.5" font-weight="800" fill="#147a4f">completed</text>
<text x="70" y="1587" font-family="Inter, Segoe UI, Arial, sans-serif" font-size="9.5" font-weight="700" fill="#6a7f90">Model · 6 outputs</text>
</g>
</a>
<a href="nodes/model--24-model-24-model-24-model-24/">
<g filter="url(#softShadow)">
<rect x="54" y="1614" width="330" height="48" rx="12" fill="#ffffff" stroke="#2f86b7" stroke-opacity=".45" stroke-width="1.4"/>
<rect x="54" y="1614" width="4" height="48" rx="2" fill="#2f86b7" fill-opacity=".72"/>
<text x="70" y="1634" font-family="Inter, Segoe UI, Arial, sans-serif" font-size="12.5" font-weight="760" fill="#102334">Model 24: model-24</text>
<rect x="296" y="1626" width="76" height="24" rx="12" fill="#e7f7ee"/><text x="310" y="1642" font-family="Inter, Segoe UI, Arial, sans-serif" font-size="10.5" font-weight="800" fill="#147a4f">completed</text>
<text x="70" y="1653" font-family="Inter, Segoe UI, Arial, sans-serif" font-size="9.5" font-weight="700" fill="#6a7f90">Model · 6 outputs</text>
</g>
</a>
<a href="nodes/model--20-model-20-model-20-model-20/">
<g filter="url(#softShadow)">
<rect x="54" y="1680" width="330" height="48" rx="12" fill="#ffffff" stroke="#2f86b7" stroke-opacity=".45" stroke-width="1.4"/>
<rect x="54" y="1680" width="4" height="48" rx="2" fill="#2f86b7" fill-opacity=".72"/>
<text x="70" y="1700" font-family="Inter, Segoe UI, Arial, sans-serif" font-size="12.5" font-weight="760" fill="#102334">Model 20: model-20</text>
<rect x="296" y="1692" width="76" height="24" rx="12" fill="#e7f7ee"/><text x="310" y="1708" font-family="Inter, Segoe UI, Arial, sans-serif" font-size="10.5" font-weight="800" fill="#147a4f">completed</text>
<text x="70" y="1719" font-family="Inter, Segoe UI, Arial, sans-serif" font-size="9.5" font-weight="700" fill="#6a7f90">Model · 6 outputs</text>
</g>
</a>
<a href="nodes/model--30-model-30-model-30-model-30/">
<g filter="url(#softShadow)">
<rect x="54" y="1746" width="330" height="48" rx="12" fill="#ffffff" stroke="#2f86b7" stroke-opacity=".45" stroke-width="1.4"/>
<rect x="54" y="1746" width="4" height="48" rx="2" fill="#2f86b7" fill-opacity=".72"/>
<text x="70" y="1766" font-family="Inter, Segoe UI, Arial, sans-serif" font-size="12.5" font-weight="760" fill="#102334">Model 30: model-30</text>
<rect x="296" y="1758" width="76" height="24" rx="12" fill="#e7f7ee"/><text x="310" y="1774" font-family="Inter, Segoe UI, Arial, sans-serif" font-size="10.5" font-weight="800" fill="#147a4f">completed</text>
<text x="70" y="1785" font-family="Inter, Segoe UI, Arial, sans-serif" font-size="9.5" font-weight="700" fill="#6a7f90">Model · 6 outputs</text>
</g>
</a>
<a href="nodes/model--28-model-28-model-28-model-28/">
<g filter="url(#softShadow)">
<rect x="54" y="1812" width="330" height="48" rx="12" fill="#ffffff" stroke="#2f86b7" stroke-opacity=".45" stroke-width="1.4"/>
<rect x="54" y="1812" width="4" height="48" rx="2" fill="#2f86b7" fill-opacity=".72"/>
<text x="70" y="1832" font-family="Inter, Segoe UI, Arial, sans-serif" font-size="12.5" font-weight="760" fill="#102334">Model 28: model-28</text>
<rect x="296" y="1824" width="76" height="24" rx="12" fill="#e7f7ee"/><text x="310" y="1840" font-family="Inter, Segoe UI, Arial, sans-serif" font-size="10.5" font-weight="800" fill="#147a4f">completed</text>
<text x="70" y="1851" font-family="Inter, Segoe UI, Arial, sans-serif" font-size="9.5" font-weight="700" fill="#6a7f90">Model · 6 outputs</text>
</g>
</a>
<a href="nodes/model--27-model-27-model-27-model-27/">
<g filter="url(#softShadow)">
<rect x="54" y="1878" width="330" height="48" rx="12" fill="#ffffff" stroke="#2f86b7" stroke-opacity=".45" stroke-width="1.4"/>
<rect x="54" y="1878" width="4" height="48" rx="2" fill="#2f86b7" fill-opacity=".72"/>
<text x="70" y="1898" font-family="Inter, Segoe UI, Arial, sans-serif" font-size="12.5" font-weight="760" fill="#102334">Model 27: model-27</text>
<rect x="296" y="1890" width="76" height="24" rx="12" fill="#e7f7ee"/><text x="310" y="1906" font-family="Inter, Segoe UI, Arial, sans-serif" font-size="10.5" font-weight="800" fill="#147a4f">completed</text>
<text x="70" y="1917" font-family="Inter, Segoe UI, Arial, sans-serif" font-size="9.5" font-weight="700" fill="#6a7f90">Model · 6 outputs</text>
</g>
</a>
<a href="nodes/model--29-model-29-model-29-model-29/">
<g filter="url(#softShadow)">
<rect x="54" y="1944" width="330" height="48" rx="12" fill="#ffffff" stroke="#2f86b7" stroke-opacity=".45" stroke-width="1.4"/>
<rect x="54" y="1944" width="4" height="48" rx="2" fill="#2f86b7" fill-opacity=".72"/>
<text x="70" y="1964" font-family="Inter, Segoe UI, Arial, sans-serif" font-size="12.5" font-weight="760" fill="#102334">Model 29: model-29</text>
<rect x="296" y="1956" width="76" height="24" rx="12" fill="#e7f7ee"/><text x="310" y="1972" font-family="Inter, Segoe UI, Arial, sans-serif" font-size="10.5" font-weight="800" fill="#147a4f">completed</text>
<text x="70" y="1983" font-family="Inter, Segoe UI, Arial, sans-serif" font-size="9.5" font-weight="700" fill="#6a7f90">Model · 6 outputs</text>
</g>
</a>
<a href="nodes/model--26-model-26-model-26-model-26/">
<g filter="url(#softShadow)">
<rect x="54" y="2010" width="330" height="48" rx="12" fill="#ffffff" stroke="#2f86b7" stroke-opacity=".45" stroke-width="1.4"/>
<rect x="54" y="2010" width="4" height="48" rx="2" fill="#2f86b7" fill-opacity=".72"/>
<text x="70" y="2030" font-family="Inter, Segoe UI, Arial, sans-serif" font-size="12.5" font-weight="760" fill="#102334">Model 26: model-26</text>
<rect x="296" y="2022" width="76" height="24" rx="12" fill="#e7f7ee"/><text x="310" y="2038" font-family="Inter, Segoe UI, Arial, sans-serif" font-size="10.5" font-weight="800" fill="#147a4f">completed</text>
<text x="70" y="2049" font-family="Inter, Segoe UI, Arial, sans-serif" font-size="9.5" font-weight="700" fill="#6a7f90">Model · 6 outputs</text>
</g>
</a>
<g><rect x="502" y="78" width="82" height="28" rx="14" fill="#4f9d8a" fill-opacity=".10" stroke="#4f9d8a" stroke-opacity=".35"/><text x="518" y="97" font-family="Inter, Segoe UI, Arial, sans-serif" font-size="13" font-weight="800" fill="#4f9d8a">Plot</text></g>
<a href="nodes/plot--1-plot-a-10-plot-bundle-a/">
<g filter="url(#softShadow)">
<rect x="502" y="96" width="330" height="48" rx="12" fill="#ffffff" stroke="#4f9d8a" stroke-opacity=".45" stroke-width="1.4"/>
<rect x="502" y="96" width="4" height="48" rx="2" fill="#4f9d8a" fill-opacity=".72"/>
<text x="518" y="116" font-family="Inter, Segoe UI, Arial, sans-serif" font-size="12.5" font-weight="760" fill="#102334">Plot bundle A</text>
<rect x="744" y="108" width="76" height="24" rx="12" fill="#e7f7ee"/><text x="758" y="124" font-family="Inter, Segoe UI, Arial, sans-serif" font-size="10.5" font-weight="800" fill="#147a4f">completed</text>
<text x="518" y="135" font-family="Inter, Segoe UI, Arial, sans-serif" font-size="9.5" font-weight="700" fill="#6a7f90">Plot · 6 outputs</text>
</g>
</a>
<a href="nodes/plot--2-plot-b-15-plot-bundle-b/">
<g filter="url(#softShadow)">
<rect x="502" y="162" width="330" height="48" rx="12" fill="#ffffff" stroke="#4f9d8a" stroke-opacity=".45" stroke-width="1.4"/>
<rect x="502" y="162" width="4" height="48" rx="2" fill="#4f9d8a" fill-opacity=".72"/>
<text x="518" y="182" font-family="Inter, Segoe UI, Arial, sans-serif" font-size="12.5" font-weight="760" fill="#102334">Plot bundle B</text>
<rect x="744" y="174" width="76" height="24" rx="12" fill="#e7f7ee"/><text x="758" y="190" font-family="Inter, Segoe UI, Arial, sans-serif" font-size="10.5" font-weight="800" fill="#147a4f">completed</text>
<text x="518" y="201" font-family="Inter, Segoe UI, Arial, sans-serif" font-size="9.5" font-weight="700" fill="#6a7f90">Plot · 6 outputs</text>
</g>
</a>
<a href="nodes/plot--11-plot-demo-default/">
<g filter="url(#softShadow)">
<rect x="502" y="228" width="330" height="48" rx="12" fill="#ffffff" stroke="#4f9d8a" stroke-opacity=".45" stroke-width="1.4"/>
<rect x="502" y="228" width="4" height="48" rx="2" fill="#4f9d8a" fill-opacity=".72"/>
<text x="518" y="248" font-family="Inter, Segoe UI, Arial, sans-serif" font-size="12.5" font-weight="760" fill="#102334">Plot demo default</text>
<rect x="744" y="240" width="76" height="24" rx="12" fill="#e7f7ee"/><text x="758" y="256" font-family="Inter, Segoe UI, Arial, sans-serif" font-size="10.5" font-weight="800" fill="#147a4f">completed</text>
<text x="518" y="267" font-family="Inter, Segoe UI, Arial, sans-serif" font-size="9.5" font-weight="700" fill="#6a7f90">Plot · 6 outputs</text>
</g>
</a>
<a href="nodes/plot--8-plot-demo-default/">
<g filter="url(#softShadow)">
<rect x="502" y="294" width="330" height="48" rx="12" fill="#ffffff" stroke="#4f9d8a" stroke-opacity=".45" stroke-width="1.4"/>
<rect x="502" y="294" width="4" height="48" rx="2" fill="#4f9d8a" fill-opacity=".72"/>
<text x="518" y="314" font-family="Inter, Segoe UI, Arial, sans-serif" font-size="12.5" font-weight="760" fill="#102334">Plot demo default</text>
<rect x="744" y="306" width="76" height="24" rx="12" fill="#e7f7ee"/><text x="758" y="322" font-family="Inter, Segoe UI, Arial, sans-serif" font-size="10.5" font-weight="800" fill="#147a4f">completed</text>
<text x="518" y="333" font-family="Inter, Segoe UI, Arial, sans-serif" font-size="9.5" font-weight="700" fill="#6a7f90">Plot · 6 outputs</text>
</g>
</a>
<a href="nodes/plot--3-plot-c-5-plot-bundle-c/">
<g filter="url(#softShadow)">
<rect x="502" y="360" width="330" height="48" rx="12" fill="#ffffff" stroke="#4f9d8a" stroke-opacity=".45" stroke-width="1.4"/>
<rect x="502" y="360" width="4" height="48" rx="2" fill="#4f9d8a" fill-opacity=".72"/>
<text x="518" y="380" font-family="Inter, Segoe UI, Arial, sans-serif" font-size="12.5" font-weight="760" fill="#102334">Plot bundle C</text>
<rect x="744" y="372" width="76" height="24" rx="12" fill="#e7f7ee"/><text x="758" y="388" font-family="Inter, Segoe UI, Arial, sans-serif" font-size="10.5" font-weight="800" fill="#147a4f">completed</text>
<text x="518" y="399" font-family="Inter, Segoe UI, Arial, sans-serif" font-size="9.5" font-weight="700" fill="#6a7f90">Plot · 6 outputs</text>
</g>
</a>
<a href="nodes/plot--13-plot-demo-default/">
<g filter="url(#softShadow)">
<rect x="502" y="426" width="330" height="48" rx="12" fill="#ffffff" stroke="#4f9d8a" stroke-opacity=".45" stroke-width="1.4"/>
<rect x="502" y="426" width="4" height="48" rx="2" fill="#4f9d8a" fill-opacity=".72"/>
<text x="518" y="446" font-family="Inter, Segoe UI, Arial, sans-serif" font-size="12.5" font-weight="760" fill="#102334">Plot demo default</text>
<rect x="744" y="438" width="76" height="24" rx="12" fill="#e7f7ee"/><text x="758" y="454" font-family="Inter, Segoe UI, Arial, sans-serif" font-size="10.5" font-weight="800" fill="#147a4f">completed</text>
<text x="518" y="465" font-family="Inter, Segoe UI, Arial, sans-serif" font-size="9.5" font-weight="700" fill="#6a7f90">Plot · 6 outputs</text>
</g>
</a>
<a href="nodes/plot--5-plot-demo-default/">
<g filter="url(#softShadow)">
<rect x="502" y="492" width="330" height="48" rx="12" fill="#ffffff" stroke="#4f9d8a" stroke-opacity=".45" stroke-width="1.4"/>
<rect x="502" y="492" width="4" height="48" rx="2" fill="#4f9d8a" fill-opacity=".72"/>
<text x="518" y="512" font-family="Inter, Segoe UI, Arial, sans-serif" font-size="12.5" font-weight="760" fill="#102334">Plot demo default</text>
<rect x="744" y="504" width="76" height="24" rx="12" fill="#e7f7ee"/><text x="758" y="520" font-family="Inter, Segoe UI, Arial, sans-serif" font-size="10.5" font-weight="800" fill="#147a4f">completed</text>
<text x="518" y="531" font-family="Inter, Segoe UI, Arial, sans-serif" font-size="9.5" font-weight="700" fill="#6a7f90">Plot · 6 outputs</text>
</g>
</a>
<g><rect x="950" y="78" width="104" height="28" rx="14" fill="#d87a48" fill-opacity=".10" stroke="#d87a48" stroke-opacity=".35"/><text x="966" y="97" font-family="Inter, Segoe UI, Arial, sans-serif" font-size="13" font-weight="800" fill="#d87a48">Report</text></g>
<a href="nodes/report--2-report-c-report-bundle-c/">
<g filter="url(#softShadow)">
<rect x="950" y="96" width="330" height="48" rx="12" fill="#ffffff" stroke="#d87a48" stroke-opacity=".45" stroke-width="1.4"/>
<rect x="950" y="96" width="4" height="48" rx="2" fill="#d87a48" fill-opacity=".72"/>
<text x="966" y="116" font-family="Inter, Segoe UI, Arial, sans-serif" font-size="12.5" font-weight="760" fill="#102334">Report: bundle C</text>
<rect x="1192" y="108" width="76" height="24" rx="12" fill="#e7f7ee"/><text x="1206" y="124" font-family="Inter, Segoe UI, Arial, sans-serif" font-size="10.5" font-weight="800" fill="#147a4f">completed</text>
<text x="966" y="135" font-family="Inter, Segoe UI, Arial, sans-serif" font-size="9.5" font-weight="700" fill="#6a7f90">Report · 7 outputs</text>
</g>
</a>
<a href="nodes/report--12-combined-report-default/">
<g filter="url(#softShadow)">
<rect x="950" y="162" width="330" height="48" rx="12" fill="#ffffff" stroke="#d87a48" stroke-opacity=".45" stroke-width="1.4"/>
<rect x="950" y="162" width="4" height="48" rx="2" fill="#d87a48" fill-opacity=".72"/>
<text x="966" y="182" font-family="Inter, Segoe UI, Arial, sans-serif" font-size="12.5" font-weight="760" fill="#102334">Combined report default</text>
<rect x="1192" y="174" width="76" height="24" rx="12" fill="#e7f7ee"/><text x="1206" y="190" font-family="Inter, Segoe UI, Arial, sans-serif" font-size="10.5" font-weight="800" fill="#147a4f">completed</text>
<text x="966" y="201" font-family="Inter, Segoe UI, Arial, sans-serif" font-size="9.5" font-weight="700" fill="#6a7f90">Report · 7 outputs</text>
</g>
</a>
<a href="nodes/report--4-combined-report-default/">
<g filter="url(#softShadow)">
<rect x="950" y="228" width="330" height="48" rx="12" fill="#ffffff" stroke="#d87a48" stroke-opacity=".45" stroke-width="1.4"/>
<rect x="950" y="228" width="4" height="48" rx="2" fill="#d87a48" fill-opacity=".72"/>
<text x="966" y="248" font-family="Inter, Segoe UI, Arial, sans-serif" font-size="12.5" font-weight="760" fill="#102334">Combined report default</text>
<rect x="1192" y="240" width="76" height="24" rx="12" fill="#e7f7ee"/><text x="1206" y="256" font-family="Inter, Segoe UI, Arial, sans-serif" font-size="10.5" font-weight="800" fill="#147a4f">completed</text>
<text x="966" y="267" font-family="Inter, Segoe UI, Arial, sans-serif" font-size="9.5" font-weight="700" fill="#6a7f90">Report · 7 outputs</text>
</g>
</a>
</svg>
