<svg xmlns="http://www.w3.org/2000/svg" width="933" height="1976" viewBox="0 0 933 1976" role="img" aria-label="AnalysisFlowDemo guide flow">
<defs>
<linearGradient id="page" x1="0" x2="1" y1="0" y2="1"><stop stop-color="#f8fcff"/><stop offset="1" stop-color="#eef7f5"/></linearGradient>
<filter id="softShadow" x="-15%" y="-30%" width="130%" height="170%"><feDropShadow dx="0" dy="12" stdDeviation="14" flood-color="#123044" flood-opacity=".12"/></filter>
<marker id="flowArrow0" markerWidth="8" markerHeight="8" refX="6.8" refY="4" orient="auto" markerUnits="strokeWidth"><path d="M 0 0 L 8 4 L 0 8 z" fill="#2f86b7"/></marker>
<marker id="flowArrow1" markerWidth="8" markerHeight="8" refX="6.8" refY="4" orient="auto" markerUnits="strokeWidth"><path d="M 0 0 L 8 4 L 0 8 z" fill="#4f9d8a"/></marker>
<marker id="flowArrow2" markerWidth="8" markerHeight="8" refX="6.8" refY="4" orient="auto" markerUnits="strokeWidth"><path d="M 0 0 L 8 4 L 0 8 z" fill="#d87a48"/></marker>
</defs>
<rect width="100%" height="100%" rx="18" fill="url(#page)"/>
<g transform="translate(729 28)"><rect width="150" height="30" rx="15" fill="#102334" fill-opacity=".92"/><circle cx="18" cy="15" r="8" fill="#79d1b6"/><path d="M14 15 L17 18 L23 11" fill="none" stroke="#102334" stroke-width="2" stroke-linecap="round" stroke-linejoin="round"/><text x="34" y="20" font-family="Inter, Segoe UI, Arial, sans-serif" font-size="12" font-weight="850" fill="#ffffff">Kflow published</text></g>
<text x="59" y="42" font-family="Inter, Segoe UI, Arial, sans-serif" font-size="24" font-weight="800" fill="#102334">AnalysisFlowDemo guide flow</text>
<text x="59" y="66" font-family="Inter, Segoe UI, Arial, sans-serif" font-size="12" font-weight="600" fill="#5c7284">Locked guide example: 30 Model jobs feeding 3 Plot jobs and 2 Report jobs on the Noumea submitter.</text>
<path d="M 231.0 134.0 C 263.8 134.0, 263.8 134.0, 290.6 134.0" fill="none" stroke="#2f86b7" stroke-width="1.0" stroke-opacity=".22" stroke-linecap="round"/>
<path d="M 231.0 194.0 C 263.8 194.0, 263.8 194.0, 290.6 194.0" fill="none" stroke="#2f86b7" stroke-width="1.0" stroke-opacity=".22" stroke-linecap="round"/>
<path d="M 231.0 254.0 C 263.8 254.0, 263.8 254.0, 290.6 254.0" fill="none" stroke="#2f86b7" stroke-width="1.0" stroke-opacity=".22" stroke-linecap="round"/>
<path d="M 231.0 314.0 C 263.8 314.0, 263.8 314.0, 290.6 314.0" fill="none" stroke="#2f86b7" stroke-width="1.0" stroke-opacity=".22" stroke-linecap="round"/>
<path d="M 231.0 374.0 C 263.8 374.0, 263.8 374.0, 290.6 374.0" fill="none" stroke="#2f86b7" stroke-width="1.0" stroke-opacity=".22" stroke-linecap="round"/>
<path d="M 231.0 434.0 C 263.8 434.0, 263.8 434.0, 290.6 434.0" fill="none" stroke="#2f86b7" stroke-width="1.0" stroke-opacity=".22" stroke-linecap="round"/>
<path d="M 231.0 494.0 C 263.8 494.0, 263.8 494.0, 290.6 494.0" fill="none" stroke="#2f86b7" stroke-width="1.0" stroke-opacity=".22" stroke-linecap="round"/>
<path d="M 231.0 554.0 C 263.8 554.0, 263.8 554.0, 290.6 554.0" fill="none" stroke="#2f86b7" stroke-width="1.0" stroke-opacity=".22" stroke-linecap="round"/>
<path d="M 231.0 614.0 C 263.8 614.0, 263.8 614.0, 290.6 614.0" fill="none" stroke="#2f86b7" stroke-width="1.0" stroke-opacity=".22" stroke-linecap="round"/>
<path d="M 231.0 674.0 C 263.8 674.0, 263.8 674.0, 290.6 674.0" fill="none" stroke="#2f86b7" stroke-width="1.0" stroke-opacity=".22" stroke-linecap="round"/>
<path d="M 290.6 134.0 L 290.6 674.0" fill="none" stroke="#2f86b7" stroke-width="1.8" stroke-opacity=".36" stroke-linecap="round"/>
<path d="M 290.6 404.0 C 314.6 404.0, 345.0 404.0, 373.0 404.0" fill="none" stroke="#2f86b7" stroke-width="2.1" stroke-opacity=".45" stroke-linecap="round" marker-end="url(#flowArrow0)"/>
<path d="M 231.0 734.0 C 263.8 734.0, 263.8 734.0, 290.6 734.0" fill="none" stroke="#2f86b7" stroke-width="1.0" stroke-opacity=".22" stroke-linecap="round"/>
<path d="M 231.0 794.0 C 263.8 794.0, 263.8 794.0, 290.6 794.0" fill="none" stroke="#2f86b7" stroke-width="1.0" stroke-opacity=".22" stroke-linecap="round"/>
<path d="M 231.0 854.0 C 263.8 854.0, 263.8 854.0, 290.6 854.0" fill="none" stroke="#2f86b7" stroke-width="1.0" stroke-opacity=".22" stroke-linecap="round"/>
<path d="M 231.0 914.0 C 263.8 914.0, 263.8 914.0, 290.6 914.0" fill="none" stroke="#2f86b7" stroke-width="1.0" stroke-opacity=".22" stroke-linecap="round"/>
<path d="M 231.0 974.0 C 263.8 974.0, 263.8 974.0, 290.6 974.0" fill="none" stroke="#2f86b7" stroke-width="1.0" stroke-opacity=".22" stroke-linecap="round"/>
<path d="M 231.0 1034.0 C 263.8 1034.0, 263.8 1034.0, 290.6 1034.0" fill="none" stroke="#2f86b7" stroke-width="1.0" stroke-opacity=".22" stroke-linecap="round"/>
<path d="M 231.0 1094.0 C 263.8 1094.0, 263.8 1094.0, 290.6 1094.0" fill="none" stroke="#2f86b7" stroke-width="1.0" stroke-opacity=".22" stroke-linecap="round"/>
<path d="M 231.0 1154.0 C 263.8 1154.0, 263.8 1154.0, 290.6 1154.0" fill="none" stroke="#2f86b7" stroke-width="1.0" stroke-opacity=".22" stroke-linecap="round"/>
<path d="M 231.0 1214.0 C 263.8 1214.0, 263.8 1214.0, 290.6 1214.0" fill="none" stroke="#2f86b7" stroke-width="1.0" stroke-opacity=".22" stroke-linecap="round"/>
<path d="M 231.0 1274.0 C 263.8 1274.0, 263.8 1274.0, 290.6 1274.0" fill="none" stroke="#2f86b7" stroke-width="1.0" stroke-opacity=".22" stroke-linecap="round"/>
<path d="M 231.0 1334.0 C 263.8 1334.0, 263.8 1334.0, 290.6 1334.0" fill="none" stroke="#2f86b7" stroke-width="1.0" stroke-opacity=".22" stroke-linecap="round"/>
<path d="M 231.0 1394.0 C 263.8 1394.0, 263.8 1394.0, 290.6 1394.0" fill="none" stroke="#2f86b7" stroke-width="1.0" stroke-opacity=".22" stroke-linecap="round"/>
<path d="M 231.0 1454.0 C 263.8 1454.0, 263.8 1454.0, 290.6 1454.0" fill="none" stroke="#2f86b7" stroke-width="1.0" stroke-opacity=".22" stroke-linecap="round"/>
<path d="M 231.0 1514.0 C 263.8 1514.0, 263.8 1514.0, 290.6 1514.0" fill="none" stroke="#2f86b7" stroke-width="1.0" stroke-opacity=".22" stroke-linecap="round"/>
<path d="M 231.0 1574.0 C 263.8 1574.0, 263.8 1574.0, 290.6 1574.0" fill="none" stroke="#2f86b7" stroke-width="1.0" stroke-opacity=".22" stroke-linecap="round"/>
<path d="M 290.6 734.0 L 290.6 1574.0" fill="none" stroke="#2f86b7" stroke-width="1.8" stroke-opacity=".36" stroke-linecap="round"/>
<path d="M 290.6 1154.0 C 314.6 1154.0, 345.0 1154.0, 373.0 1154.0" fill="none" stroke="#2f86b7" stroke-width="2.1" stroke-opacity=".45" stroke-linecap="round" marker-end="url(#flowArrow0)"/>
<path d="M 231.0 1634.0 C 263.8 1634.0, 263.8 1634.0, 290.6 1634.0" fill="none" stroke="#2f86b7" stroke-width="1.0" stroke-opacity=".22" stroke-linecap="round"/>
<path d="M 231.0 1694.0 C 263.8 1694.0, 263.8 1694.0, 290.6 1694.0" fill="none" stroke="#2f86b7" stroke-width="1.0" stroke-opacity=".22" stroke-linecap="round"/>
<path d="M 231.0 1754.0 C 263.8 1754.0, 263.8 1754.0, 290.6 1754.0" fill="none" stroke="#2f86b7" stroke-width="1.0" stroke-opacity=".22" stroke-linecap="round"/>
<path d="M 231.0 1814.0 C 263.8 1814.0, 263.8 1814.0, 290.6 1814.0" fill="none" stroke="#2f86b7" stroke-width="1.0" stroke-opacity=".22" stroke-linecap="round"/>
<path d="M 231.0 1874.0 C 263.8 1874.0, 263.8 1874.0, 290.6 1874.0" fill="none" stroke="#2f86b7" stroke-width="1.0" stroke-opacity=".22" stroke-linecap="round"/>
<path d="M 290.6 1634.0 L 290.6 1874.0" fill="none" stroke="#2f86b7" stroke-width="1.8" stroke-opacity=".36" stroke-linecap="round"/>
<path d="M 290.6 1754.0 C 314.6 1754.0, 345.0 1754.0, 373.0 1754.0" fill="none" stroke="#2f86b7" stroke-width="2.1" stroke-opacity=".45" stroke-linecap="round" marker-end="url(#flowArrow0)"/>
<path d="M 551.0 404.0 C 616.3 404.0, 616.3 779.0, 693.0 779.0" fill="none" stroke="#4f9d8a" stroke-width="1.6" stroke-opacity=".34" stroke-linecap="round" marker-end="url(#flowArrow1)"/>
<path d="M 551.0 1154.0 C 616.3 1154.0, 616.3 779.0, 693.0 779.0" fill="none" stroke="#4f9d8a" stroke-width="1.6" stroke-opacity=".34" stroke-linecap="round" marker-end="url(#flowArrow1)"/>
<path d="M 551.0 1754.0 C 616.3 1754.0, 616.3 1754.0, 693.0 1754.0" fill="none" stroke="#4f9d8a" stroke-width="1.6" stroke-opacity=".34" stroke-linecap="round" marker-end="url(#flowArrow1)"/>
<g><rect x="59" y="88" width="70" height="28" rx="14" fill="#2f86b7" fill-opacity=".10" stroke="#2f86b7" stroke-opacity=".35"/><text x="94.0" y="107" text-anchor="middle" font-family="Inter, Segoe UI, Arial, sans-serif" font-size="13" font-weight="800" fill="#2f86b7">Model</text></g>
<a href="nodes/model-01/">
<g filter="url(#softShadow)">
<rect x="59" y="112" width="168" height="44" rx="10" fill="#ffffff" stroke="#2f86b7" stroke-opacity=".42" stroke-width="1.35"/>
<rect x="73" y="119" width="40" height="2.8" rx="1.4" fill="#2f86b7" fill-opacity=".48"/>
<text x="73" y="139" font-family="Inter, Segoe UI, Arial, sans-serif" font-size="14.2" font-weight="830" fill="#102334">Model 1: model-01</text>
<text x="73" y="149" font-family="Inter, Segoe UI, Arial, sans-serif" font-size="10.8" font-weight="770" fill="#5d7385">Model · 6 outputs</text>
</g>
</a>
<a href="nodes/model-02/">
<g filter="url(#softShadow)">
<rect x="59" y="172" width="168" height="44" rx="10" fill="#ffffff" stroke="#2f86b7" stroke-opacity=".42" stroke-width="1.35"/>
<rect x="73" y="179" width="40" height="2.8" rx="1.4" fill="#2f86b7" fill-opacity=".48"/>
<text x="73" y="199" font-family="Inter, Segoe UI, Arial, sans-serif" font-size="14.2" font-weight="830" fill="#102334">Model 2: model-02</text>
<text x="73" y="209" font-family="Inter, Segoe UI, Arial, sans-serif" font-size="10.8" font-weight="770" fill="#5d7385">Model · 6 outputs</text>
</g>
</a>
<a href="nodes/model-03/">
<g filter="url(#softShadow)">
<rect x="59" y="232" width="168" height="44" rx="10" fill="#ffffff" stroke="#2f86b7" stroke-opacity=".42" stroke-width="1.35"/>
<rect x="73" y="239" width="40" height="2.8" rx="1.4" fill="#2f86b7" fill-opacity=".48"/>
<text x="73" y="259" font-family="Inter, Segoe UI, Arial, sans-serif" font-size="14.2" font-weight="830" fill="#102334">Model 3: model-03</text>
<text x="73" y="269" font-family="Inter, Segoe UI, Arial, sans-serif" font-size="10.8" font-weight="770" fill="#5d7385">Model · 6 outputs</text>
</g>
</a>
<a href="nodes/model-04/">
<g filter="url(#softShadow)">
<rect x="59" y="292" width="168" height="44" rx="10" fill="#ffffff" stroke="#2f86b7" stroke-opacity=".42" stroke-width="1.35"/>
<rect x="73" y="299" width="40" height="2.8" rx="1.4" fill="#2f86b7" fill-opacity=".48"/>
<text x="73" y="319" font-family="Inter, Segoe UI, Arial, sans-serif" font-size="14.2" font-weight="830" fill="#102334">Model 4: model-04</text>
<text x="73" y="329" font-family="Inter, Segoe UI, Arial, sans-serif" font-size="10.8" font-weight="770" fill="#5d7385">Model · 6 outputs</text>
</g>
</a>
<a href="nodes/model-05/">
<g filter="url(#softShadow)">
<rect x="59" y="352" width="168" height="44" rx="10" fill="#ffffff" stroke="#2f86b7" stroke-opacity=".42" stroke-width="1.35"/>
<rect x="73" y="359" width="40" height="2.8" rx="1.4" fill="#2f86b7" fill-opacity=".48"/>
<text x="73" y="379" font-family="Inter, Segoe UI, Arial, sans-serif" font-size="14.2" font-weight="830" fill="#102334">Model 5: model-05</text>
<text x="73" y="389" font-family="Inter, Segoe UI, Arial, sans-serif" font-size="10.8" font-weight="770" fill="#5d7385">Model · 6 outputs</text>
</g>
</a>
<a href="nodes/model-06/">
<g filter="url(#softShadow)">
<rect x="59" y="412" width="168" height="44" rx="10" fill="#ffffff" stroke="#2f86b7" stroke-opacity=".42" stroke-width="1.35"/>
<rect x="73" y="419" width="40" height="2.8" rx="1.4" fill="#2f86b7" fill-opacity=".48"/>
<text x="73" y="439" font-family="Inter, Segoe UI, Arial, sans-serif" font-size="14.2" font-weight="830" fill="#102334">Model 6: model-06</text>
<text x="73" y="449" font-family="Inter, Segoe UI, Arial, sans-serif" font-size="10.8" font-weight="770" fill="#5d7385">Model · 6 outputs</text>
</g>
</a>
<a href="nodes/model-07/">
<g filter="url(#softShadow)">
<rect x="59" y="472" width="168" height="44" rx="10" fill="#ffffff" stroke="#2f86b7" stroke-opacity=".42" stroke-width="1.35"/>
<rect x="73" y="479" width="40" height="2.8" rx="1.4" fill="#2f86b7" fill-opacity=".48"/>
<text x="73" y="499" font-family="Inter, Segoe UI, Arial, sans-serif" font-size="14.2" font-weight="830" fill="#102334">Model 7: model-07</text>
<text x="73" y="509" font-family="Inter, Segoe UI, Arial, sans-serif" font-size="10.8" font-weight="770" fill="#5d7385">Model · 6 outputs</text>
</g>
</a>
<a href="nodes/model-08/">
<g filter="url(#softShadow)">
<rect x="59" y="532" width="168" height="44" rx="10" fill="#ffffff" stroke="#2f86b7" stroke-opacity=".42" stroke-width="1.35"/>
<rect x="73" y="539" width="40" height="2.8" rx="1.4" fill="#2f86b7" fill-opacity=".48"/>
<text x="73" y="559" font-family="Inter, Segoe UI, Arial, sans-serif" font-size="14.2" font-weight="830" fill="#102334">Model 8: model-08</text>
<text x="73" y="569" font-family="Inter, Segoe UI, Arial, sans-serif" font-size="10.8" font-weight="770" fill="#5d7385">Model · 6 outputs</text>
</g>
</a>
<a href="nodes/model-09/">
<g filter="url(#softShadow)">
<rect x="59" y="592" width="168" height="44" rx="10" fill="#ffffff" stroke="#2f86b7" stroke-opacity=".42" stroke-width="1.35"/>
<rect x="73" y="599" width="40" height="2.8" rx="1.4" fill="#2f86b7" fill-opacity=".48"/>
<text x="73" y="619" font-family="Inter, Segoe UI, Arial, sans-serif" font-size="14.2" font-weight="830" fill="#102334">Model 9: model-09</text>
<text x="73" y="629" font-family="Inter, Segoe UI, Arial, sans-serif" font-size="10.8" font-weight="770" fill="#5d7385">Model · 6 outputs</text>
</g>
</a>
<a href="nodes/model-10/">
<g filter="url(#softShadow)">
<rect x="59" y="652" width="168" height="44" rx="10" fill="#ffffff" stroke="#2f86b7" stroke-opacity=".42" stroke-width="1.35"/>
<rect x="73" y="659" width="40" height="2.8" rx="1.4" fill="#2f86b7" fill-opacity=".48"/>
<text x="73" y="679" font-family="Inter, Segoe UI, Arial, sans-serif" font-size="14.2" font-weight="830" fill="#102334">Model 10: model-10</text>
<text x="73" y="689" font-family="Inter, Segoe UI, Arial, sans-serif" font-size="10.8" font-weight="770" fill="#5d7385">Model · 6 outputs</text>
</g>
</a>
<a href="nodes/model-11/">
<g filter="url(#softShadow)">
<rect x="59" y="712" width="168" height="44" rx="10" fill="#ffffff" stroke="#2f86b7" stroke-opacity=".42" stroke-width="1.35"/>
<rect x="73" y="719" width="40" height="2.8" rx="1.4" fill="#2f86b7" fill-opacity=".48"/>
<text x="73" y="739" font-family="Inter, Segoe UI, Arial, sans-serif" font-size="14.2" font-weight="830" fill="#102334">Model 11: model-11</text>
<text x="73" y="749" font-family="Inter, Segoe UI, Arial, sans-serif" font-size="10.8" font-weight="770" fill="#5d7385">Model · 6 outputs</text>
</g>
</a>
<a href="nodes/model-12/">
<g filter="url(#softShadow)">
<rect x="59" y="772" width="168" height="44" rx="10" fill="#ffffff" stroke="#2f86b7" stroke-opacity=".42" stroke-width="1.35"/>
<rect x="73" y="779" width="40" height="2.8" rx="1.4" fill="#2f86b7" fill-opacity=".48"/>
<text x="73" y="799" font-family="Inter, Segoe UI, Arial, sans-serif" font-size="14.2" font-weight="830" fill="#102334">Model 12: model-12</text>
<text x="73" y="809" font-family="Inter, Segoe UI, Arial, sans-serif" font-size="10.8" font-weight="770" fill="#5d7385">Model · 6 outputs</text>
</g>
</a>
<a href="nodes/model-13/">
<g filter="url(#softShadow)">
<rect x="59" y="832" width="168" height="44" rx="10" fill="#ffffff" stroke="#2f86b7" stroke-opacity=".42" stroke-width="1.35"/>
<rect x="73" y="839" width="40" height="2.8" rx="1.4" fill="#2f86b7" fill-opacity=".48"/>
<text x="73" y="859" font-family="Inter, Segoe UI, Arial, sans-serif" font-size="14.2" font-weight="830" fill="#102334">Model 13: model-13</text>
<text x="73" y="869" font-family="Inter, Segoe UI, Arial, sans-serif" font-size="10.8" font-weight="770" fill="#5d7385">Model · 6 outputs</text>
</g>
</a>
<a href="nodes/model-14/">
<g filter="url(#softShadow)">
<rect x="59" y="892" width="168" height="44" rx="10" fill="#ffffff" stroke="#2f86b7" stroke-opacity=".42" stroke-width="1.35"/>
<rect x="73" y="899" width="40" height="2.8" rx="1.4" fill="#2f86b7" fill-opacity=".48"/>
<text x="73" y="919" font-family="Inter, Segoe UI, Arial, sans-serif" font-size="14.2" font-weight="830" fill="#102334">Model 14: model-14</text>
<text x="73" y="929" font-family="Inter, Segoe UI, Arial, sans-serif" font-size="10.8" font-weight="770" fill="#5d7385">Model · 6 outputs</text>
</g>
</a>
<a href="nodes/model-15/">
<g filter="url(#softShadow)">
<rect x="59" y="952" width="168" height="44" rx="10" fill="#ffffff" stroke="#2f86b7" stroke-opacity=".42" stroke-width="1.35"/>
<rect x="73" y="959" width="40" height="2.8" rx="1.4" fill="#2f86b7" fill-opacity=".48"/>
<text x="73" y="979" font-family="Inter, Segoe UI, Arial, sans-serif" font-size="14.2" font-weight="830" fill="#102334">Model 15: model-15</text>
<text x="73" y="989" font-family="Inter, Segoe UI, Arial, sans-serif" font-size="10.8" font-weight="770" fill="#5d7385">Model · 6 outputs</text>
</g>
</a>
<a href="nodes/model-16/">
<g filter="url(#softShadow)">
<rect x="59" y="1012" width="168" height="44" rx="10" fill="#ffffff" stroke="#2f86b7" stroke-opacity=".42" stroke-width="1.35"/>
<rect x="73" y="1019" width="40" height="2.8" rx="1.4" fill="#2f86b7" fill-opacity=".48"/>
<text x="73" y="1039" font-family="Inter, Segoe UI, Arial, sans-serif" font-size="14.2" font-weight="830" fill="#102334">Model 16: model-16</text>
<text x="73" y="1049" font-family="Inter, Segoe UI, Arial, sans-serif" font-size="10.8" font-weight="770" fill="#5d7385">Model · 6 outputs</text>
</g>
</a>
<a href="nodes/model-17/">
<g filter="url(#softShadow)">
<rect x="59" y="1072" width="168" height="44" rx="10" fill="#ffffff" stroke="#2f86b7" stroke-opacity=".42" stroke-width="1.35"/>
<rect x="73" y="1079" width="40" height="2.8" rx="1.4" fill="#2f86b7" fill-opacity=".48"/>
<text x="73" y="1099" font-family="Inter, Segoe UI, Arial, sans-serif" font-size="14.2" font-weight="830" fill="#102334">Model 17: model-17</text>
<text x="73" y="1109" font-family="Inter, Segoe UI, Arial, sans-serif" font-size="10.8" font-weight="770" fill="#5d7385">Model · 6 outputs</text>
</g>
</a>
<a href="nodes/model-18/">
<g filter="url(#softShadow)">
<rect x="59" y="1132" width="168" height="44" rx="10" fill="#ffffff" stroke="#2f86b7" stroke-opacity=".42" stroke-width="1.35"/>
<rect x="73" y="1139" width="40" height="2.8" rx="1.4" fill="#2f86b7" fill-opacity=".48"/>
<text x="73" y="1159" font-family="Inter, Segoe UI, Arial, sans-serif" font-size="14.2" font-weight="830" fill="#102334">Model 18: model-18</text>
<text x="73" y="1169" font-family="Inter, Segoe UI, Arial, sans-serif" font-size="10.8" font-weight="770" fill="#5d7385">Model · 6 outputs</text>
</g>
</a>
<a href="nodes/model-19/">
<g filter="url(#softShadow)">
<rect x="59" y="1192" width="168" height="44" rx="10" fill="#ffffff" stroke="#2f86b7" stroke-opacity=".42" stroke-width="1.35"/>
<rect x="73" y="1199" width="40" height="2.8" rx="1.4" fill="#2f86b7" fill-opacity=".48"/>
<text x="73" y="1219" font-family="Inter, Segoe UI, Arial, sans-serif" font-size="14.2" font-weight="830" fill="#102334">Model 19: model-19</text>
<text x="73" y="1229" font-family="Inter, Segoe UI, Arial, sans-serif" font-size="10.8" font-weight="770" fill="#5d7385">Model · 6 outputs</text>
</g>
</a>
<a href="nodes/model-20/">
<g filter="url(#softShadow)">
<rect x="59" y="1252" width="168" height="44" rx="10" fill="#ffffff" stroke="#2f86b7" stroke-opacity=".42" stroke-width="1.35"/>
<rect x="73" y="1259" width="40" height="2.8" rx="1.4" fill="#2f86b7" fill-opacity=".48"/>
<text x="73" y="1279" font-family="Inter, Segoe UI, Arial, sans-serif" font-size="14.2" font-weight="830" fill="#102334">Model 20: model-20</text>
<text x="73" y="1289" font-family="Inter, Segoe UI, Arial, sans-serif" font-size="10.8" font-weight="770" fill="#5d7385">Model · 6 outputs</text>
</g>
</a>
<a href="nodes/model-21/">
<g filter="url(#softShadow)">
<rect x="59" y="1312" width="168" height="44" rx="10" fill="#ffffff" stroke="#2f86b7" stroke-opacity=".42" stroke-width="1.35"/>
<rect x="73" y="1319" width="40" height="2.8" rx="1.4" fill="#2f86b7" fill-opacity=".48"/>
<text x="73" y="1339" font-family="Inter, Segoe UI, Arial, sans-serif" font-size="14.2" font-weight="830" fill="#102334">Model 21: model-21</text>
<text x="73" y="1349" font-family="Inter, Segoe UI, Arial, sans-serif" font-size="10.8" font-weight="770" fill="#5d7385">Model · 6 outputs</text>
</g>
</a>
<a href="nodes/model-22/">
<g filter="url(#softShadow)">
<rect x="59" y="1372" width="168" height="44" rx="10" fill="#ffffff" stroke="#2f86b7" stroke-opacity=".42" stroke-width="1.35"/>
<rect x="73" y="1379" width="40" height="2.8" rx="1.4" fill="#2f86b7" fill-opacity=".48"/>
<text x="73" y="1399" font-family="Inter, Segoe UI, Arial, sans-serif" font-size="14.2" font-weight="830" fill="#102334">Model 22: model-22</text>
<text x="73" y="1409" font-family="Inter, Segoe UI, Arial, sans-serif" font-size="10.8" font-weight="770" fill="#5d7385">Model · 6 outputs</text>
</g>
</a>
<a href="nodes/model-23/">
<g filter="url(#softShadow)">
<rect x="59" y="1432" width="168" height="44" rx="10" fill="#ffffff" stroke="#2f86b7" stroke-opacity=".42" stroke-width="1.35"/>
<rect x="73" y="1439" width="40" height="2.8" rx="1.4" fill="#2f86b7" fill-opacity=".48"/>
<text x="73" y="1459" font-family="Inter, Segoe UI, Arial, sans-serif" font-size="14.2" font-weight="830" fill="#102334">Model 23: model-23</text>
<text x="73" y="1469" font-family="Inter, Segoe UI, Arial, sans-serif" font-size="10.8" font-weight="770" fill="#5d7385">Model · 6 outputs</text>
</g>
</a>
<a href="nodes/model-24/">
<g filter="url(#softShadow)">
<rect x="59" y="1492" width="168" height="44" rx="10" fill="#ffffff" stroke="#2f86b7" stroke-opacity=".42" stroke-width="1.35"/>
<rect x="73" y="1499" width="40" height="2.8" rx="1.4" fill="#2f86b7" fill-opacity=".48"/>
<text x="73" y="1519" font-family="Inter, Segoe UI, Arial, sans-serif" font-size="14.2" font-weight="830" fill="#102334">Model 24: model-24</text>
<text x="73" y="1529" font-family="Inter, Segoe UI, Arial, sans-serif" font-size="10.8" font-weight="770" fill="#5d7385">Model · 6 outputs</text>
</g>
</a>
<a href="nodes/model-25/">
<g filter="url(#softShadow)">
<rect x="59" y="1552" width="168" height="44" rx="10" fill="#ffffff" stroke="#2f86b7" stroke-opacity=".42" stroke-width="1.35"/>
<rect x="73" y="1559" width="40" height="2.8" rx="1.4" fill="#2f86b7" fill-opacity=".48"/>
<text x="73" y="1579" font-family="Inter, Segoe UI, Arial, sans-serif" font-size="14.2" font-weight="830" fill="#102334">Model 25: model-25</text>
<text x="73" y="1589" font-family="Inter, Segoe UI, Arial, sans-serif" font-size="10.8" font-weight="770" fill="#5d7385">Model · 6 outputs</text>
</g>
</a>
<a href="nodes/model-26/">
<g filter="url(#softShadow)">
<rect x="59" y="1612" width="168" height="44" rx="10" fill="#ffffff" stroke="#2f86b7" stroke-opacity=".42" stroke-width="1.35"/>
<rect x="73" y="1619" width="40" height="2.8" rx="1.4" fill="#2f86b7" fill-opacity=".48"/>
<text x="73" y="1639" font-family="Inter, Segoe UI, Arial, sans-serif" font-size="14.2" font-weight="830" fill="#102334">Model 26: model-26</text>
<text x="73" y="1649" font-family="Inter, Segoe UI, Arial, sans-serif" font-size="10.8" font-weight="770" fill="#5d7385">Model · 6 outputs</text>
</g>
</a>
<a href="nodes/model-27/">
<g filter="url(#softShadow)">
<rect x="59" y="1672" width="168" height="44" rx="10" fill="#ffffff" stroke="#2f86b7" stroke-opacity=".42" stroke-width="1.35"/>
<rect x="73" y="1679" width="40" height="2.8" rx="1.4" fill="#2f86b7" fill-opacity=".48"/>
<text x="73" y="1699" font-family="Inter, Segoe UI, Arial, sans-serif" font-size="14.2" font-weight="830" fill="#102334">Model 27: model-27</text>
<text x="73" y="1709" font-family="Inter, Segoe UI, Arial, sans-serif" font-size="10.8" font-weight="770" fill="#5d7385">Model · 6 outputs</text>
</g>
</a>
<a href="nodes/model-28/">
<g filter="url(#softShadow)">
<rect x="59" y="1732" width="168" height="44" rx="10" fill="#ffffff" stroke="#2f86b7" stroke-opacity=".42" stroke-width="1.35"/>
<rect x="73" y="1739" width="40" height="2.8" rx="1.4" fill="#2f86b7" fill-opacity=".48"/>
<text x="73" y="1759" font-family="Inter, Segoe UI, Arial, sans-serif" font-size="14.2" font-weight="830" fill="#102334">Model 28: model-28</text>
<text x="73" y="1769" font-family="Inter, Segoe UI, Arial, sans-serif" font-size="10.8" font-weight="770" fill="#5d7385">Model · 6 outputs</text>
</g>
</a>
<a href="nodes/model-29/">
<g filter="url(#softShadow)">
<rect x="59" y="1792" width="168" height="44" rx="10" fill="#ffffff" stroke="#2f86b7" stroke-opacity=".42" stroke-width="1.35"/>
<rect x="73" y="1799" width="40" height="2.8" rx="1.4" fill="#2f86b7" fill-opacity=".48"/>
<text x="73" y="1819" font-family="Inter, Segoe UI, Arial, sans-serif" font-size="14.2" font-weight="830" fill="#102334">Model 29: model-29</text>
<text x="73" y="1829" font-family="Inter, Segoe UI, Arial, sans-serif" font-size="10.8" font-weight="770" fill="#5d7385">Model · 6 outputs</text>
</g>
</a>
<a href="nodes/model-30/">
<g filter="url(#softShadow)">
<rect x="59" y="1852" width="168" height="44" rx="10" fill="#ffffff" stroke="#2f86b7" stroke-opacity=".42" stroke-width="1.35"/>
<rect x="73" y="1859" width="40" height="2.8" rx="1.4" fill="#2f86b7" fill-opacity=".48"/>
<text x="73" y="1879" font-family="Inter, Segoe UI, Arial, sans-serif" font-size="14.2" font-weight="830" fill="#102334">Model 30: model-30</text>
<text x="73" y="1889" font-family="Inter, Segoe UI, Arial, sans-serif" font-size="10.8" font-weight="770" fill="#5d7385">Model · 6 outputs</text>
</g>
</a>
<g><rect x="379" y="88" width="62" height="28" rx="14" fill="#4f9d8a" fill-opacity=".10" stroke="#4f9d8a" stroke-opacity=".35"/><text x="410.0" y="107" text-anchor="middle" font-family="Inter, Segoe UI, Arial, sans-serif" font-size="13" font-weight="800" fill="#4f9d8a">Plot</text></g>
<a href="nodes/plot-a-10/">
<g filter="url(#softShadow)">
<rect x="379" y="382" width="168" height="44" rx="10" fill="#ffffff" stroke="#4f9d8a" stroke-opacity=".42" stroke-width="1.35"/>
<rect x="393" y="389" width="40" height="2.8" rx="1.4" fill="#4f9d8a" fill-opacity=".48"/>
<text x="393" y="409" font-family="Inter, Segoe UI, Arial, sans-serif" font-size="14.2" font-weight="830" fill="#102334">Plot bundle A</text>
<text x="393" y="419" font-family="Inter, Segoe UI, Arial, sans-serif" font-size="10.8" font-weight="770" fill="#5d7385">Plot · 6 outputs</text>
</g>
</a>
<a href="nodes/plot-b-15/">
<g filter="url(#softShadow)">
<rect x="379" y="1132" width="168" height="44" rx="10" fill="#ffffff" stroke="#4f9d8a" stroke-opacity=".42" stroke-width="1.35"/>
<rect x="393" y="1139" width="40" height="2.8" rx="1.4" fill="#4f9d8a" fill-opacity=".48"/>
<text x="393" y="1159" font-family="Inter, Segoe UI, Arial, sans-serif" font-size="14.2" font-weight="830" fill="#102334">Plot bundle B</text>
<text x="393" y="1169" font-family="Inter, Segoe UI, Arial, sans-serif" font-size="10.8" font-weight="770" fill="#5d7385">Plot · 6 outputs</text>
</g>
</a>
<a href="nodes/plot-c-5/">
<g filter="url(#softShadow)">
<rect x="379" y="1732" width="168" height="44" rx="10" fill="#ffffff" stroke="#4f9d8a" stroke-opacity=".42" stroke-width="1.35"/>
<rect x="393" y="1739" width="40" height="2.8" rx="1.4" fill="#4f9d8a" fill-opacity=".48"/>
<text x="393" y="1759" font-family="Inter, Segoe UI, Arial, sans-serif" font-size="14.2" font-weight="830" fill="#102334">Plot bundle C</text>
<text x="393" y="1769" font-family="Inter, Segoe UI, Arial, sans-serif" font-size="10.8" font-weight="770" fill="#5d7385">Plot · 6 outputs</text>
</g>
</a>
<g><rect x="699" y="88" width="78" height="28" rx="14" fill="#d87a48" fill-opacity=".10" stroke="#d87a48" stroke-opacity=".35"/><text x="738.0" y="107" text-anchor="middle" font-family="Inter, Segoe UI, Arial, sans-serif" font-size="13" font-weight="800" fill="#d87a48">Report</text></g>
<a href="nodes/report-a-b/">
<g filter="url(#softShadow)">
<rect x="699" y="757" width="175" height="44" rx="10" fill="#ffffff" stroke="#d87a48" stroke-opacity=".42" stroke-width="1.35"/>
<rect x="713" y="764" width="40" height="2.8" rx="1.4" fill="#d87a48" fill-opacity=".48"/>
<text x="713" y="784" font-family="Inter, Segoe UI, Arial, sans-serif" font-size="14.2" font-weight="830" fill="#102334">Report: bundles A+B</text>
<text x="713" y="794" font-family="Inter, Segoe UI, Arial, sans-serif" font-size="10.8" font-weight="770" fill="#5d7385">Report · 8 outputs</text>
</g>
</a>
<a href="nodes/report-c/">
<g filter="url(#softShadow)">
<rect x="699" y="1732" width="168" height="44" rx="10" fill="#ffffff" stroke="#d87a48" stroke-opacity=".42" stroke-width="1.35"/>
<rect x="713" y="1739" width="40" height="2.8" rx="1.4" fill="#d87a48" fill-opacity=".48"/>
<text x="713" y="1759" font-family="Inter, Segoe UI, Arial, sans-serif" font-size="14.2" font-weight="830" fill="#102334">Report: bundle C</text>
<text x="713" y="1769" font-family="Inter, Segoe UI, Arial, sans-serif" font-size="10.8" font-weight="770" fill="#5d7385">Report · 7 outputs</text>
</g>
</a>
</svg>
