<svg xmlns="http://www.w3.org/2000/svg" width="184" height="34" viewBox="0 0 184 34" role="img" aria-label="Kflow published reproducible flow">
<defs>
  <linearGradient id="badgeBg" x1="0" x2="1" y1="0" y2="1">
    <stop stop-color="#102334"/>
    <stop offset=".58" stop-color="#17535a"/>
    <stop offset="1" stop-color="#2b7fa8"/>
  </linearGradient>
  <linearGradient id="badgeAccent" x1="0" x2="1">
    <stop stop-color="#eba171"/>
    <stop offset="1" stop-color="#9adbd4"/>
  </linearGradient>
  <filter id="badgeShadow" x="-8%" y="-35%" width="116%" height="190%">
    <feDropShadow dx="0" dy="3" stdDeviation="3" flood-color="#123044" flood-opacity=".16"/>
  </filter>
</defs>
<rect x="1" y="1" width="182" height="32" rx="16" fill="url(#badgeBg)" filter="url(#badgeShadow)"/>
<rect x="1.5" y="1.5" width="181" height="31" rx="15.5" fill="none" stroke="#ffffff" stroke-opacity=".22"/>
<path d="M13 22V13M13 13l9-5M13 13l9 5M22 8v10M22 8l9 5M22 18l9-5M31 13v9" fill="none" stroke="url(#badgeAccent)" stroke-width="2.2" stroke-linecap="round" stroke-linejoin="round"/>
<circle cx="13" cy="13" r="2.8" fill="#f3c08d"/>
<circle cx="22" cy="8" r="2.8" fill="#9adbd4"/>
<circle cx="22" cy="18" r="2.8" fill="#9adbd4"/>
<circle cx="31" cy="13" r="2.8" fill="#f3c08d"/>
<text x="45" y="14" font-family="Inter, Segoe UI, Arial, sans-serif" font-size="9" font-weight="900" letter-spacing="2.1" fill="#ffffff">KFLOW</text>
<text x="45" y="25" font-family="Inter, Segoe UI, Arial, sans-serif" font-size="8" font-weight="850" letter-spacing=".7" fill="#cceee9">PUBLISHED FLOW</text>
<circle cx="165" cy="17" r="10" fill="#ffffff" fill-opacity=".12" stroke="#ffffff" stroke-opacity=".18"/>
<path d="M160.5 17.2l3.5 3.5 7.6-9" fill="none" stroke="#9adbd4" stroke-width="2.7" stroke-linecap="round" stroke-linejoin="round"/>
</svg>
